HIERARCHY
ROOT root
{
	OFFSET 0.000000 0.000000 0.000000
	CHANNELS 6 Xposition Yposition Zposition Zrotation Yrotation Xrotation
	JOINT lhip
	{
		OFFSET 0.058581 -0.082280 -0.017664
		CHANNELS 3 Zrotation Yrotation Xrotation
		JOINT lknee
		{
			OFFSET 0.043451 -0.386469 0.008037
			CHANNELS 3 Zrotation Yrotation Xrotation
			JOINT lankle
			{
				OFFSET -0.014790 -0.426874 -0.037428
				CHANNELS 3 Zrotation Yrotation Xrotation
				JOINT ltoe
				{
					OFFSET 0.041054 -0.060286 0.122042
					CHANNELS 3 Zrotation Yrotation Xrotation
					End Site
					{
						OFFSET 0.000000 0.000000 0.000000
					}
				}
			}
		}
	}
	JOINT rhip
	{
		OFFSET -0.060310 -0.090513 -0.013543
		CHANNELS 3 Zrotation Yrotation Xrotation
		JOINT rknee
		{
			OFFSET -0.043257 -0.383688 -0.004843
			CHANNELS 3 Zrotation Yrotation Xrotation
			JOINT rankle
			{
				OFFSET 0.019056 -0.420046 -0.034562
				CHANNELS 3 Zrotation Yrotation Xrotation
				JOINT rtoe
				{
					OFFSET -0.034840 -0.062106 0.130323
					CHANNELS 3 Zrotation Yrotation Xrotation
					End Site
					{
						OFFSET 0.000000 0.000000 0.000000
					}
				}
			}
		}
	}
	JOINT lowerback
	{
		OFFSET 0.004439 0.124404 -0.038385
		CHANNELS 3 Zrotation Yrotation Xrotation
		JOINT upperback
		{
			OFFSET 0.004488 0.137956 0.026820
			CHANNELS 3 Zrotation Yrotation Xrotation
			JOINT chest
			{
				OFFSET -0.002265 0.056032 0.002855
				CHANNELS 3 Zrotation Yrotation Xrotation
				JOINT lowerneck
				{
					OFFSET -0.013390 0.211636 -0.033468
					CHANNELS 3 Zrotation Yrotation Xrotation
					JOINT upperneck
					{
						OFFSET 0.010113 0.088937 0.050410
						CHANNELS 3 Zrotation Yrotation Xrotation
						End Site
						{
							OFFSET 0.000000 0.000000 0.000000
						}
					}
				}
				JOINT lclavicle
				{
					OFFSET 0.071702 0.114000 -0.018898
					CHANNELS 3 Zrotation Yrotation Xrotation
					JOINT lshoulder
					{
						OFFSET 0.122921 0.045205 -0.019046
						CHANNELS 3 Zrotation Yrotation Xrotation
						JOINT lelbow
						{
							OFFSET 0.255332 -0.015649 -0.022946
							CHANNELS 3 Zrotation Yrotation Xrotation
							JOINT lwrist
							{
								OFFSET 0.265709 0.012698 -0.007375
								CHANNELS 3 Zrotation Yrotation Xrotation
								End Site
								{
									OFFSET 0.000000 0.000000 0.000000
								}
							}
						}
					}
				}
				JOINT rclavicle
				{
					OFFSET -0.082954 0.112472 -0.023707
					CHANNELS 3 Zrotation Yrotation Xrotation
					JOINT rshoulder
					{
						OFFSET -0.113228 0.046853 -0.008472
						CHANNELS 3 Zrotation Yrotation Xrotation
						JOINT relbow
						{
							OFFSET -0.260127 -0.014369 -0.031269
							CHANNELS 3 Zrotation Yrotation Xrotation
							JOINT rwrist
							{
								OFFSET -0.269108 0.006794 -0.006027
								CHANNELS 3 Zrotation Yrotation Xrotation
								End Site
								{
									OFFSET 0.000000 0.000000 0.000000
								}
							}
						}
					}
				}
			}
		}
	}
}
MOTION
Frames: 11
Frame Time: 0.033333
0.191434 2.349492 0.996600 -102.011851 1.950692 93.104953 -3.709359 -4.773736 -11.390663 -5.663293 -2.471766 16.809638 3.357809 10.903965 -14.587816 0.000000 -0.000000 0.000000 1.284433 -2.022156 -6.677671 7.154351 -1.578535 5.250720 9.713816 -0.107786 -4.950434 0.000000 -0.000000 0.000000 1.223751 2.999276 12.612622 -0.645473 -0.838425 -6.394763 -0.272436 0.810140 -1.586802 -0.945274 8.599694 0.211253 -1.240632 4.371721 5.863656 -24.235692 4.228736 -0.692669 -52.593860 -3.920569 5.057270 13.537060 -15.962608 -6.939343 16.436407 -9.457323 -2.072335 24.094146 0.048099 1.841730 52.835548 6.086418 14.058172 -6.647009 28.048004 2.635121 -8.525283 7.099588 -7.546225 
0.194237 2.349109 0.996656 -102.184413 1.520682 93.070717 -4.216945 -5.182685 -11.465414 -5.472001 -2.477596 16.528875 3.295598 11.048794 -14.078522 0.000000 -0.000000 0.000000 0.817151 -2.143618 -7.548915 7.102414 -1.464339 6.457448 9.880907 -0.063118 -5.220591 0.000000 -0.000000 0.000000 1.794653 3.276648 13.069445 -1.001060 -0.658260 -6.512028 -0.518502 0.549263 -1.375199 -1.047949 8.712908 0.073014 -1.223899 4.865999 5.872989 -24.106049 3.920217 -0.789775 -53.254353 -4.037198 5.409141 13.767013 -16.175787 -6.702979 16.512586 -9.200449 -1.915031 23.669437 0.307897 1.823726 53.034767 5.977769 14.216422 -6.562871 28.088585 3.018563 -8.318483 7.137040 -7.225398 
0.196800 2.347541 0.996737 -102.365498 1.056122 92.951939 -4.584956 -5.134891 -12.395470 -5.698862 -1.611986 18.106457 3.088230 10.823363 -14.147899 0.000000 -0.000000 0.000000 0.389230 -2.295944 -8.388890 6.868618 -1.352985 7.841709 9.663858 -0.039796 -5.762125 0.000000 -0.000000 0.000000 1.936687 3.004158 13.749648 -1.044661 -0.520945 -6.966176 -0.650122 0.947699 -0.967157 -1.518757 8.559085 -0.223656 -1.424330 5.155832 6.010718 -24.266854 3.970272 -1.048684 -53.442554 -4.082698 5.523056 13.698341 -16.644973 -6.263596 16.826329 -9.382350 -1.820493 23.266756 0.494579 1.888739 52.790639 5.925292 14.289343 -6.418260 28.371253 3.233873 -8.568148 7.229260 -7.272633 
0.199790 2.344965 0.997490 -102.229896 0.348097 92.872290 -4.511767 -4.661837 -13.899169 -6.782167 -0.327230 20.566326 1.754028 9.538276 -15.737735 0.000000 -0.000000 0.000000 -0.467322 -1.956034 -9.524531 6.773212 -1.768809 9.659434 9.906443 -0.214095 -6.759260 0.000000 -0.000000 0.000000 2.217975 2.984543 14.377983 -1.292728 -0.363380 -6.982416 -1.060099 0.989021 -0.910644 -1.847717 8.800478 -0.522933 -1.597428 5.583940 5.835224 -24.468779 3.820344 -0.987389 -53.185386 -4.396289 5.386986 13.742615 -16.858456 -6.470300 17.295895 -9.693810 -1.924017 23.083841 0.285579 1.636713 52.653149 5.899736 14.342415 -6.628085 28.431511 3.234395 -8.566862 7.299610 -6.990088 
0.203029 2.340552 0.998096 -101.858454 -0.383477 93.023168 -4.490715 -3.687553 -15.135260 -7.685509 0.721407 21.904258 0.351514 8.547335 -18.077423 0.000000 -0.000000 0.000000 -1.547145 -1.825933 -11.139536 6.644009 -2.515969 11.790739 9.643138 -0.187185 -7.978129 0.000000 -0.000000 0.000000 2.136980 2.344371 15.157536 -1.351609 -0.321969 -7.343463 -1.185222 1.419191 -1.073829 -2.399044 8.974492 -0.540254 -1.860270 6.132418 5.262057 -24.913119 3.688386 -1.044454 -52.718250 -4.154324 5.205264 13.744297 -17.106757 -7.078912 18.081440 -9.951247 -1.935302 22.709555 0.447241 1.868666 52.201925 5.822014 14.177057 -6.794807 28.676625 2.737879 -9.251392 7.408087 -6.878843 
0.206001 2.335353 0.998249 -101.349914 -1.230250 93.158921 -2.606980 -2.350043 -17.954807 -9.643124 2.982070 26.129275 -1.134758 6.042454 -18.932028 0.000000 -0.000000 0.000000 -2.828681 -2.260174 -12.577759 6.532637 -3.130118 13.726378 9.572204 0.017443 -8.871674 0.000000 -0.000000 0.000000 2.370937 2.322411 15.720048 -1.601395 -0.431127 -7.444721 -1.642366 1.264639 -1.098221 -3.028307 9.123639 -1.041534 -1.931273 6.303559 5.124330 -24.873624 3.469864 -0.705269 -52.455958 -4.249680 4.779268 13.713091 -17.150495 -6.985050 18.777125 -10.310320 -2.216956 22.471766 0.369447 1.849108 51.829359 5.888351 13.815266 -6.758766 28.692255 3.097125 -9.546500 7.521066 -6.793487 
0.209234 2.329834 0.998243 -100.428757 -1.849922 93.518305 -1.135812 -0.691833 -19.363020 -9.779559 4.784414 27.209474 -1.278183 6.243932 -20.137150 0.000000 -0.000000 0.000000 -3.706982 -2.795432 -14.028734 6.141970 -3.434172 15.216298 9.197618 -0.044026 -10.160665 0.000000 -0.000000 0.000000 2.270682 1.811080 15.882225 -1.642765 -0.617799 -7.507560 -1.670279 1.308770 -1.152131 -3.535525 9.505757 -1.177612 -2.261587 6.944035 4.564365 -25.020234 3.160692 -0.235209 -52.118650 -4.059289 4.348043 13.805492 -17.366781 -6.725649 19.088698 -10.172924 -2.375331 21.927830 0.446762 2.164518 51.574468 6.050757 13.333941 -6.627909 28.698336 3.302163 -9.528980 7.415300 -6.924070 
0.211155 2.323550 0.998126 -99.608865 -2.403322 93.639265 1.390897 1.242560 -20.409228 -9.803612 6.454939 28.729275 -1.362668 6.640588 -19.664462 0.000000 -0.000000 0.000000 -4.870558 -3.807931 -15.209191 6.295363 -3.611505 16.972665 9.023426 0.262496 -10.913289 0.000000 -0.000000 0.000000 2.185792 1.649730 15.715093 -1.709517 -0.733882 -7.266134 -1.794286 1.226151 -1.074115 -3.882421 9.756358 -1.236512 -2.278443 7.156132 4.529787 -24.738008 2.886040 0.130568 -51.783049 -4.024485 4.296404 13.019548 -17.113364 -5.940058 19.843420 -9.877951 -3.106567 21.893333 0.429949 2.634690 50.853448 6.265737 12.667459 -6.225104 28.628882 3.561376 -10.230286 7.389644 -6.938684 
0.211792 2.316679 0.998408 -98.929724 -2.780757 93.479372 4.262671 2.449971 -21.005068 -8.753580 7.528795 30.247638 -0.501767 8.615853 -17.630914 0.000000 -0.000000 0.000000 -5.927465 -4.674381 -15.127486 6.787600 -3.610903 17.353950 9.007164 0.202645 -12.176718 0.000000 -0.000000 0.000000 2.047623 1.681545 15.543823 -1.808206 -0.797761 -7.149619 -1.874102 1.234830 -0.736146 -3.586506 10.138054 -1.694757 -2.332256 7.466011 5.144245 -25.153011 2.947642 -0.331731 -50.767281 -4.089603 4.059064 12.524923 -16.594192 -5.061190 19.289095 -9.555685 -3.086474 22.465536 0.168452 2.894651 49.566611 6.414919 12.031578 -5.617504 28.536215 4.062431 -10.299560 7.441003 -6.335225 
0.211496 2.309674 0.998562 -98.335566 -3.031089 93.184218 8.002032 3.502645 -20.955430 -7.768685 8.465594 30.799450 0.221568 9.753663 -13.657734 0.000000 -0.000000 0.000000 -6.796918 -5.098256 -14.587423 6.883529 -3.333791 17.258454 8.559224 0.497363 -13.169749 0.000000 -0.000000 0.000000 1.660784 1.671878 15.421067 -1.807673 -0.782322 -6.848664 -1.737946 1.083346 -0.788993 -3.645665 10.744695 -2.236370 -2.080817 7.608643 6.222443 -25.494957 3.156605 -0.057930 -49.914563 -4.075292 3.398321 12.215204 -16.746440 -4.995739 18.429198 -9.282876 -2.950668 22.977454 0.122029 3.046104 48.705019 6.376337 11.509542 -5.206801 28.183904 4.392007 -10.005008 7.448374 -5.786712 
0.210624 2.301509 0.998199 -97.617336 -3.228390 93.025245 11.487676 5.127949 -20.175554 -6.501198 8.784354 28.937630 0.457432 11.352588 -11.310810 0.000000 -0.000000 0.000000 -7.634216 -5.654326 -14.195216 7.115436 -3.192328 17.319165 8.162608 0.241776 -14.722698 0.000000 -0.000000 0.000000 1.043858 1.447999 15.092476 -1.690306 -0.635655 -6.767402 -1.475791 1.053481 -0.731691 -3.503312 11.216866 -2.687079 -1.912192 7.865151 7.254901 -26.007433 3.644447 -0.074977 -49.293382 -4.139609 2.921738 12.178439 -16.875864 -4.947798 18.378883 -9.022390 -2.767662 23.420210 -0.099201 3.114147 48.058879 6.267276 11.196195 -4.804638 27.828400 4.443184 -10.533725 7.515425 -5.054297 
